<svg width="500" height="500" xmlns="http://www.w3.org/2000/svg"><rect x="0" y="0" width="8" height="8" style="fill:#ff0000" /><rect x="8" y="0" width="8" height="8" style="fill:#ff0000" /><rect x="16" y="0" width="8" height="8" style="fill:#00ff00" /><rect x="24" y="0" width="8" height="8" style="fill:#00ff00" /><rect x="0" y="8" width="8" height="8" style="fill:#ff0000" /><rect x="8" y="8" width="8" height="8" style="fill:#ff00ff" /><rect x="16" y="8" width="8" height="8" style="fill:#ff00ff" /><rect x="24" y="8" width="8" height="8" style="fill:#00ff00" /><rect x="0" y="16" width="8" height="8" style="fill:#0000ff" /><rect x="8" y="16" width="8" height="8" style="fill:#ff00ff" /><rect x="16" y="16" width="8" height="8" style="fill:#ff00ff" /><rect x="24" y="16" width="8" height="8" style="fill:#ffff00" /><rect x="0" y="24" width="8" height="8" style="fill:#0000ff" /><rect x="8" y="24" width="8" height="8" style="fill:#0000ff" /><rect x="16" y="24" width="8" height="8" style="fill:#ffff00" /><rect x="24" y="24" width="8" height="8" style="fill:#ffff00" /></svg>
